<?xml version="1.0" encoding="UTF-8"?>
<svg id="Layer_1" xmlns="http://www.w3.org/2000/svg" viewBox="0 0 652.01 82.89">
  <path d="M53.27,82.89c-8.54,0-10.8-2.75-11.68-5.58-.06-.2-.09-.42-.08-.63.58-10.12,20.35-21.04,38.37-21.04.29,0,.45.03.7.06.73.11,1.96.29,6.89.36h.69s.26-.63.26-.63c.28-.71.28-1.28.28-1.74,0-5.72-5.76-10.92-12.09-10.92-1.29,0-7.85.33-12.3.84-.42-.02-.64-.25-.64-.69,0-.12,0-.19.01-.23,25.82-7.64,43.17-20.02,43.17-30.81v-.13l-.03-.12c-1.24-4.85-5.38-7.84-12.33-8.87h-.07s-.07-.01-.07-.01c-7.33,0-16.42,2.3-27,6.84-11.2,4.83-25.92,14.11-37.5,23.64-10.05,8.26-22.02,20.17-22.02,29.97,0,3.23,1.06,5.2,3.34,6.2l.32.14.34-.09c13.12-3.46,33.01-20.5,46.31-39.67.11,0,.17.02.18.02,0,0,.04.07.07.29-13.2,21.07-37.17,44.4-51.04,44.87-.2,0-.4-.02-.59-.07-3.83-1.13-6.75-4.81-6.75-7.37C0,45.06,39.08,19.54,66.84,8.59,79.2,3.69,94.41,0,98.25,0c8.96,0,11.99,1.55,14.75,5.01.18.22.3.48.36.75.39,1.86.57,3.83.57,6.01,0,7.07-9.66,15.2-15.75,18.66-5.28,3.07-11.34,6.43-19.87,10.2l-3.16,1.4,3.42.51c11.59,1.72,17.15,8.49,17.42,14.05l.03.71.68.2c3.17.96,4.78,1.74,7.71,3.17,1.14.55,2.46,1.2,4.13,1.98.01.07.01.23.01.33,0,0,0,0,0,0-.02,0-.06.03-.12.05-1.4-.53-2.73-1.06-4-1.57-2.98-1.19-5.55-2.22-7.93-2.82l-.77-.19-.36.7c-6.19,11.98-27.03,23.74-42.08,23.74ZM79.25,57.02c-13.43,0-27.73,7.24-32.56,16.48l-.26.49.28.48c1.09,1.88,3.14,3.02,4.8,3.94.34.19.66.36.94.53l.24.14h.28c11.67,0,26.53-8.11,33.14-18.08l.03-.05.03-.05c.21-.42.21-.82.21-1.08,0-1.21-.61-2.16-1.66-2.61l-.19-.08h-.21c-1.4,0-2.61-.04-3.56-.07-.62-.02-1.13-.04-1.51-.04Z"/>
  <path d="M114.3,79.3c-2.71,0-5.86-1.23-5.86-4.7,0-12.14,23.16-26.97,37.67-29.51.43-.07.86.02,1.23.24,1.06.64,2.56,1.97,3.5,3.1.42.5.54,1.18.3,1.78-.16.39-.38.78-.65,1.14-.57.75-1.63.92-2.41.38-.61-.42-1.28-.94-1.72-1.39l-.2-.2-.27-.07c-.54-.14-1.06-.14-1.51-.14-11.09,0-29.61,17.08-29.61,21.7,0,1.92,1.56,4.59,4.48,4.59h.16c11.08-1.8,21.66-8.6,28.61-18.32.44-.62,1.23-.92,1.96-.68.25.08.51.18.76.28,1.11.45,1.47,1.85.69,2.77l-4.32,5.13.94.62c3.16,2.07,6.93,3.12,11.21,3.12,7.6,0,14.89-1.67,21.66-4.96l.06-.03.06-.04s.1-.04.21-.04c.05.08.14.28.14.58v.03c-7.85,4.82-17.79,7.42-23.18,7.42-6.16,0-11.28-1.62-15.65-4.97l-.59-.45-.6.43c-11.33,8.07-20.44,12.17-27.08,12.17Z"/>
  <path d="M219.89,76.87c-1.02,0-2.89-.44-4.7-.86l-1.2-.28c-6.13-1.67-9.25-5.89-9.25-12.54,0-1.43-.95-2.89-1.71-4.06l-.3-.47-.08-.08c-.67-.67-1.34-1.21-2.12-1.83-.89-.71-1.89-1.5-3.17-2.73l-.71-.68-.69.69c-3.02,3.02-7.1,6.64-14.44,10.6-.11.07-.18.09-.29.09-.06-.08-.14-.28-.14-.58h0c8.69-4.08,14.92-11.67,16.21-19.61l.84.25c.37.11.69.34.92.65,2.59,3.48,4.9,5.58,6.77,7.28,2.85,2.59,4.42,4.01,4.42,8.06,0,.64-.07,1.31-.15,2.08l-.08.81.1.23c1.86,4.48,6.53,9.28,10.53,9.28,9.44,0,17.51-2.52,28.79-9,.09-.06.16-.07.26-.08.05.08.14.28.14.58v.02c-13.63,8.07-22.01,12.17-29.94,12.17Z"/>
  <path d="M261.91,77.61c-9.48,0-15.37-5.52-15.37-14.42,0-8.1,11.12-21.72,24.38-22.84.16-.01.33,0,.48.02,4.79.78,5.38,2.44,5.65,5.04,0,.09.01.18.01.27-.12,6.12-7.69,12.37-23.15,19.01l-1.06.46,2.12,3.48.05.06c2.02,2.4,6.51,5.31,12.54,5.63h0c9.29,0,24.58-3.49,35.93-10.17.09-.06.15-.07.25-.07.06.08.14.28.14.58v.03c-14.21,8.69-27.95,12.91-41.97,12.91ZM269.94,44.14c-5.64,0-17.09,9.58-18.2,16.58l-.2,1.27,1.28-.12c11.21-1.07,20.23-8.98,20.23-14.83v-.24l-.11-.21c-.77-1.54-1.89-2.45-3.01-2.45Z"/>
  <path d="M326.32,76.45c-7.25,0-16.28-4.8-18.25-12.55l-.33-1.3-1.15.69c-1.04.63-1.65.92-2.53,1.32l-.08.03-.07.05s-.1.04-.21.04c-.05-.08-.14-.28-.14-.58v-.02c8.32-4.6,18.33-11.18,24.39-15.42,1.06-.75,1.56-2.22,1.69-3.35.41-3.34.91-4.73,3.2-5.57,1.15-.43,2.38.39,2.41,1.62,0,.11,0,.23,0,.36,0,1.58-.3,3.38-.62,5.1-.23,1.5-.44,2.86-.44,3.77,0,1.01.74,2.89,1.87,5.66,1.03,2.72,2.46,6.48,2.46,9.02,0,2.39-.54,5.09-1.38,6.86l-.71,1.51,1.67-.08c6.86-.33,22.21-3.88,32.01-9.42.1-.06.16-.08.27-.08.05.08.14.28.14.58v.02c-14.05,7.69-29.33,11.76-44.19,11.76ZM313.08,62.35c.16,6.79,5.38,12.51,11.45,12.51h.14c1.72-.48,3.39-1.09,5.01-1.82l.15-.07.16-.22c2.03-2.82,3.15-6.66,3.15-10.83,0-1.38-1.11-4.83-2.91-9.94l-.26-.75-.79.09c-5.8.66-11.9,4.97-16.56,8.66l-1.45,1.15,1.62.54c.1.13.24.41.3.68Z"/>
  <path d="M367.28,79.63c-1.47-1.16-2.83-3.16-3.42-4.39-.15-.32-.2-.67-.15-1.02.35-2.43,2.4-7.54,7.28-15.13l10.87-16.68c17.16-26.28,35.1-41.36,49.21-41.36,4.06,0,4.91,3.13,4.91,5.76,0,10.37-26.4,32.39-55.39,46.19l-.25.12-.15.23c-5.24,7.87-5.33,8.04-7.61,12.46-.39.76-.85,1.65-1.42,2.73l-.04.09c-.28.71-.28,1.37-.28,1.85,0,1.75.86,3.05,2.24,3.4l.12.03h.12c1.41,0,5.63-2.99,7.9-4.75,10.89-8.27,20.04-13.41,23.88-13.41,3.33,0,5.39,2.6,7.73,6.01l.25.37c3.08,4.58,6.58,9.78,14.3,9.78,5.3,0,14.42-3.9,20.69-7.75.07-.05.13-.06.24-.06.05.08.14.28.14.58v.03c-7.96,5.64-20.07,11.22-21.6,11.22-7.11,0-11.69-2.99-15.55-6.28-.12-.1-.22-.21-.3-.34-1.48-2.13-5.53-7.79-7.68-9.17l-.25-.16h-.29c-5.65,0-9.85,2.59-16.57,8.04l-.13.11c-6.3,5.16-11.81,9.67-17.13,11.75-.55.22-1.19.13-1.66-.23ZM428.24,4.48c-11.07,3.38-21.92,14.05-31.07,24.04-2.87,3.44-6.17,8.49-8.58,12.18-.78,1.2-1.49,2.28-2.07,3.14l-1.75,2.59,2.92-1.09c25.84-9.61,41.4-28.12,44-35.89l.09-.26-.06-.27c-.44-2.08-1.05-3.53-2.75-4.38l-.36-.18-.38.12Z"/>
  <path d="M460.52,77.61c-9.48,0-15.37-5.52-15.37-14.42,0-8.1,11.12-21.72,24.38-22.84.16-.01.33,0,.48.02,4.79.78,5.38,2.44,5.65,5.04,0,.09.01.18.01.27-.12,6.12-7.69,12.37-23.15,19.01l-1.06.45,2.12,3.48.05.06c2.02,2.4,6.51,5.31,12.54,5.63h0c9.29,0,24.58-3.49,35.93-10.17.09-.06.15-.07.25-.07.06.08.14.28.14.58v.03c-14.21,8.69-27.95,12.91-41.97,12.91ZM468.55,44.14c-5.64,0-17.09,9.58-18.2,16.58l-.2,1.27,1.28-.12c11.21-1.07,20.23-8.98,20.23-14.83v-.24l-.11-.21c-.77-1.54-1.89-2.45-3.01-2.45Z"/>
  <path d="M520.5,76.98c-12.86,0-18.85-4.85-18.85-15.26,0-9.07,7.59-22.91,19.81-36.13,11.28-12.21,23.69-20.73,30.19-20.73,2.24,0,3.33,1.37,3.33,4.17,0,7.62-9.84,21.11-23.92,32.81l-22.99,19.1.18.62c1.12,3.99,2.72,6.79,4.88,8.53l.09.06c3.94,2.52,8.19,3.75,13,3.75,10.14,0,22.29-3.55,33.33-9.74.1-.06.17-.08.27-.08.05.08.14.28.14.58v.02c-15.05,8.61-26.85,12.28-39.44,12.28ZM547.74,9.93c-9.48,0-24.77,18.59-32.73,31.08-1.9,2.96-5.09,9.49-6.43,13.18l-.88,2.41,2.27-1.18c16.25-8.4,40.35-29.68,40.35-41.86v-.22l-.09-.2c-.11-.25-.21-.48-.29-.7-.33-.81-.64-1.58-1.59-2.32l-.27-.21h-.34Z"/>
  <path d="M577.93,76.98c-12.86,0-18.85-4.85-18.85-15.26,0-9.07,7.59-22.91,19.81-36.13,11.28-12.21,23.69-20.73,30.19-20.73,2.24,0,3.33,1.37,3.33,4.17,0,7.62-9.84,21.11-23.92,32.81l-22.99,19.1.18.62c1.12,3.99,2.72,6.78,4.87,8.53l.09.06c3.94,2.52,8.19,3.75,13,3.75,10.14,0,22.29-3.55,33.33-9.74.1-.06.17-.08.27-.08.05.08.14.28.14.58v.02c-15.05,8.61-26.85,12.28-39.44,12.28ZM605.18,9.93c-9.48,0-24.77,18.59-32.73,31.08-1.9,2.96-5.09,9.49-6.43,13.18l-.88,2.41,2.27-1.18c16.25-8.4,40.35-29.68,40.35-41.86v-.22l-.09-.2c-.11-.25-.21-.48-.29-.7-.33-.81-.64-1.58-1.59-2.32l-.27-.21h-.34Z"/>
  <path d="M639.81,76.45c-7.25,0-16.28-4.8-18.25-12.55l-.33-1.3-1.15.69c-1.05.63-1.65.93-2.53,1.32l-.08.03-.07.05s-.1.04-.2.04c-.05-.08-.14-.28-.14-.58v-.02c8.32-4.61,18.33-11.18,24.39-15.42,1.05-.75,1.56-2.22,1.69-3.35.41-3.34.91-4.73,3.2-5.58,1.15-.43,2.38.39,2.41,1.62,0,.11,0,.23,0,.36,0,1.59-.3,3.39-.62,5.1-.23,1.5-.44,2.86-.44,3.77,0,1.01.74,2.9,1.87,5.66,1.03,2.72,2.46,6.48,2.46,9.02,0,2.39-.54,5.08-1.38,6.86l-.47.97c-.11.22-.25.41-.44.57-.43.36-1.33,1.05-2.72,1.74-2.35,1.17-6.4,1.01-7.19,1.01ZM626.56,62.35c.16,6.79,5.38,12.51,11.45,12.51h.14c1.72-.48,3.39-1.09,5.01-1.82l.15-.07.16-.22c2.03-2.82,3.14-6.66,3.14-10.83,0-1.39-1.11-4.83-2.91-9.94l-.26-.75-.79.09c-5.8.66-11.9,4.97-16.56,8.66l-1.45,1.15,1.62.54c.1.13.24.41.3.68Z"/>
</svg>